<svg xmlns="http://www.w3.org/2000/svg" viewBox="0 0 1455.69 268.95" width="160" height="30"><g fill="#4a545e"><path d="m454.96 166.24-.52-.32c-2.77-1.95-5.4-2.79-7.88-2.52s-5.11 1.54-7.88 3.82c-3.58 2.93-7.48 5.18-11.69 6.75-4.22 1.57-8.86 2.36-13.95 2.36-8.2 0-15.48-1.76-21.83-5.28-6.35-3.52-11.26-8.42-14.72-14.71-3.46-6.28-5.2-13.43-5.2-21.45s1.76-15.01 5.28-21.29c3.52-6.28 8.43-11.18 14.73-14.71 6.29-3.52 13.54-5.28 21.74-5.28 5.2 0 9.82.79 13.86 2.36s7.91 3.98 11.61 7.23c2.77 2.38 5.43 3.68 7.97 3.9 2.54.22 5.2-.7 7.97-2.76l.52-.32c3-2.27 4.62-4.69 4.85-7.23s-1.04-5.06-3.81-7.56c-5.89-5.2-12.42-9.21-19.57-12.03-7.16-2.82-14.96-4.23-23.39-4.23-12.01 0-22.95 2.79-32.83 8.37-9.87 5.58-17.61 13.11-23.21 22.59-5.6 9.48-8.4 19.8-8.4 30.96s2.8 21.64 8.4 31.12c5.6 9.48 13.34 17.01 23.21 22.59 9.88 5.58 20.82 8.37 32.83 8.37 8.32 0 16.17-1.44 23.56-4.31 7.39-2.87 13.97-6.75 19.75-11.62 2.77-2.38 4.01-4.9 3.72-7.56-.29-2.66-2-5.07-5.12-7.24ZM490.82 71.98h-.34c-3.58 0-6.3.87-8.14 2.6-1.85 1.74-2.77 4.28-2.77 7.64v102.71c0 3.36.92 5.91 2.77 7.64 1.85 1.73 4.56 2.6 8.14 2.6h.34c3.58 0 6.29-.87 8.14-2.6 1.84-1.73 2.77-4.28 2.77-7.64V82.22c0-3.36-.93-5.9-2.77-7.64-1.84-1.73-4.56-2.6-8.14-2.6ZM592.08 113.26c-7.33-4.01-15.33-6.01-23.99-6.01s-16.49 2-23.82 6.01c-7.34 4.01-13.17 9.45-17.5 16.33-4.33 6.88-6.49 14.38-6.49 22.51s2.13 15.47 6.41 22.35c4.27 6.88 10.07 12.35 17.41 16.41 7.33 4.06 15.33 6.1 23.99 6.1s16.66-2.03 23.99-6.1c7.33-4.06 13.14-9.53 17.41-16.41 4.27-6.88 6.41-14.33 6.41-22.35s-2.14-15.63-6.41-22.51c-4.28-6.88-10.08-12.32-17.41-16.33Zm-1.91 52.17c-2.02 3.9-4.94 6.94-8.75 9.1-3.81 2.17-8.26 3.25-13.34 3.25s-9.5-1.08-13.25-3.25-6.67-5.2-8.75-9.1-3.12-8.34-3.12-13.33 1.01-9.56 3.03-13.41c2.02-3.84 4.94-6.85 8.75-9.02 3.81-2.17 8.26-3.25 13.34-3.25s9.53 1.09 13.34 3.25c3.81 2.17 6.73 5.17 8.75 9.02 2.02 3.85 3.03 8.32 3.03 13.41 0 4.99-1.01 9.43-3.03 13.33ZM706.67 109.04h-.34c-3.58 0-6.3.87-8.14 2.6-1.85 1.73-2.77 4.28-2.77 7.64v33.32c0 5.64-.75 10.24-2.25 13.81-1.5 3.58-3.78 6.2-6.84 7.88s-6.9 2.52-11.52 2.52-8.11-.81-10.83-2.44c-2.71-1.62-4.71-4.2-5.97-7.72-1.27-3.52-1.91-8.21-1.91-14.06v-33.32c0-3.36-.93-5.9-2.77-7.64-1.85-1.73-4.56-2.6-8.14-2.6h-.35c-3.58 0-6.3.87-8.14 2.6-1.85 1.73-2.77 4.28-2.77 7.64v33.32c0 8.56 1.61 16.2 4.85 22.92 3.23 6.72 7.91 11.97 14.03 15.76 6.12 3.79 13.45 5.69 22 5.69s15.74-1.87 22.26-5.61 11.57-8.96 15.16-15.68c3.58-6.72 5.37-14.41 5.37-23.08v-33.32c0-3.36-.93-5.9-2.77-7.64-1.87-1.73-4.58-2.59-8.16-2.59ZM819.09 71.98h-.35c-3.58 0-6.3.87-8.14 2.6-1.85 1.74-2.77 4.28-2.77 7.64v36.17c-1.48-1.5-3.04-2.93-4.76-4.23-6.06-4.6-13.37-6.91-21.91-6.91s-16.46 2-23.39 6.01-12.36 9.45-16.28 16.33c-3.93 6.88-5.89 14.38-5.89 22.51s1.96 15.63 5.89 22.51c3.93 6.88 9.36 12.33 16.28 16.33 6.93 4.01 14.72 6.01 23.39 6.01s15.85-2.3 21.91-6.91c1.77-1.35 3.37-2.82 4.88-4.36.14 2.95.96 5.3 2.66 6.88 1.84 1.73 4.56 2.6 8.14 2.6h.35c3.58 0 6.29-.87 8.14-2.6 1.84-1.73 2.77-4.28 2.77-7.64V82.22c0-3.36-.93-5.9-2.77-7.64-1.85-1.73-4.57-2.6-8.15-2.6Zm-12.64 93.86c-2.2 3.96-5.31 7.02-9.36 9.18-4.04 2.17-8.78 3.25-14.2 3.25-4.39 0-8.37-1.11-11.95-3.33s-6.41-5.31-8.49-9.26-3.12-8.48-3.12-13.57 1.04-9.64 3.12-13.65 4.94-7.12 8.57-9.35c3.64-2.22 7.59-3.33 11.87-3.33 5.43 0 10.16 1.08 14.2 3.25 4.04 2.17 7.16 5.26 9.36 9.26 2.19 4.01 3.29 8.61 3.29 13.81s-1.1 9.78-3.29 13.74ZM917.83 80.03c-6.35-3.52-13.45-5.28-21.31-5.28h-24.43c-6.01 0-10.6 1.49-13.77 4.47-3.18 2.98-4.76 7.29-4.76 12.92v92.31c0 3.47.98 6.12 2.94 7.96s4.79 2.76 8.49 2.76h.35c3.7 0 6.52-.92 8.49-2.76 1.96-1.84 2.95-4.49 2.95-7.96V95.87h19.75c3.93 0 7.28.68 10.05 2.03 2.77 1.36 4.85 3.2 6.24 5.53 1.39 2.33 2.08 4.96 2.08 7.88s-.69 5.58-2.08 7.96c-1.38 2.39-3.47 4.28-6.24 5.69s-6.12 2.11-10.05 2.11h-4.24c-5.83 0-8.06 4.73-8.06 10.56s2.23 10.57 8.06 10.57h4.24c7.85 0 14.95-1.81 21.31-5.45 6.35-3.63 11.32-8.29 14.9-13.98 3.58-5.69 5.37-11.51 5.37-17.47s-1.79-11.92-5.37-17.55c-3.59-5.62-8.56-10.2-14.91-13.72ZM967.2 71.98h-.34c-3.58 0-6.3.87-8.14 2.6-1.85 1.74-2.77 4.28-2.77 7.64v.32c0 3.36.92 5.91 2.77 7.64 1.85 1.74 4.56 2.6 8.14 2.6h.34c3.58 0 6.29-.87 8.14-2.6s2.77-4.28 2.77-7.64v-.32c0-3.36-.92-5.9-2.77-7.64-1.85-1.73-4.56-2.6-8.14-2.6ZM967.2 109.04h-.34c-3.58 0-6.3.87-8.14 2.6-1.85 1.73-2.77 4.28-2.77 7.64v65.66c0 3.36.92 5.91 2.77 7.64 1.85 1.73 4.56 2.6 8.14 2.6h.34c3.58 0 6.29-.87 8.14-2.6s2.77-4.28 2.77-7.64v-65.67c0-3.36-.92-5.9-2.77-7.64-1.85-1.73-4.56-2.59-8.14-2.59ZM1011.2 71.98h-.34c-3.58 0-6.3.87-8.14 2.6-1.85 1.74-2.77 4.28-2.77 7.64v102.71c0 3.36.92 5.91 2.77 7.64 1.85 1.73 4.56 2.6 8.14 2.6h.34c3.58 0 6.29-.87 8.14-2.6 1.84-1.73 2.77-4.28 2.77-7.64V82.22c0-3.36-.93-5.9-2.77-7.64-1.85-1.73-4.56-2.6-8.14-2.6ZM1112.45 113.26c-7.33-4.01-15.33-6.01-23.99-6.01s-16.49 2-23.82 6.01c-7.34 4.01-13.17 9.45-17.5 16.33-4.33 6.88-6.49 14.38-6.49 22.51s2.13 15.47 6.41 22.35c4.27 6.88 10.07 12.35 17.41 16.41 7.33 4.06 15.33 6.1 23.99 6.1s16.66-2.03 23.99-6.1c7.33-4.06 13.14-9.53 17.41-16.41s6.41-14.33 6.41-22.35-2.14-15.63-6.41-22.51c-4.27-6.88-10.07-12.32-17.41-16.33Zm-1.9 52.17c-2.02 3.9-4.94 6.94-8.75 9.1-3.81 2.17-8.26 3.25-13.34 3.25s-9.5-1.08-13.25-3.25-6.67-5.2-8.75-9.1-3.12-8.34-3.12-13.33 1.01-9.56 3.03-13.41c2.02-3.84 4.94-6.85 8.75-9.02 3.81-2.17 8.26-3.25 13.34-3.25s9.53 1.09 13.34 3.25c3.81 2.17 6.73 5.17 8.75 9.02 2.02 3.85 3.03 8.32 3.03 13.41s-1.01 9.43-3.03 13.33ZM1185.73 109.04h-13.69V91.81c0-3.36-.93-5.91-2.77-7.64-1.85-1.73-4.57-2.6-8.14-2.6h-.35c-3.58 0-6.3.87-8.14 2.6-1.85 1.73-2.77 4.28-2.77 7.64v68.75c0 9.86 2.83 17.69 8.49 23.49 5.65 5.8 14.49 9.34 26.5 10.64 3.46.33 6.18-.41 8.14-2.19 1.96-1.79 2.95-4.31 2.95-7.56v-.33c0-3.03-.86-5.36-2.6-6.99-1.73-1.63-4.39-2.71-7.97-3.25s-6.32-1.46-8.23-2.76-3.23-3.09-3.98-5.36-1.13-5.25-1.13-8.94v-28.93h13.69c3.35 0 5.89-.84 7.62-2.52s2.6-4.03 2.6-7.07v-.16c0-3.14-.86-5.52-2.6-7.15-1.73-1.63-4.27-2.44-7.62-2.44ZM1333.5 84.17c-2.54-6.28-7.51-9.43-14.9-9.43h-.35c-7.39 0-12.36 3.14-14.9 9.43l-38.11 98.16c-1.27 3.36-1.04 6.34.69 8.94s4.51 3.9 8.32 3.9h.69c3.81 0 6.81-1.06 9.01-3.17 2.19-2.11 4.1-5.22 5.72-9.34l28.76-74.26 28.76 74.26c1.5 4.12 3.38 7.23 5.63 9.34s5.28 3.17 9.1 3.17h.69c3.81 0 6.58-1.3 8.32-3.9 1.73-2.6 1.96-5.58.69-8.94l-38.12-98.16Z"></path><path d="M1318.6 153.9h-.35c-3.58 0-6.3.87-8.14 2.6-1.85 1.74-2.77 4.28-2.77 7.64v.32c0 3.36.92 5.91 2.77 7.64 1.85 1.74 4.56 2.6 8.14 2.6h.35c3.58 0 6.29-.86 8.14-2.6 1.84-1.73 2.77-4.28 2.77-7.64v-.32c0-3.36-.93-5.9-2.77-7.64-1.85-1.73-4.56-2.6-8.14-2.6ZM1406.25 74.58c-1.85-1.73-4.56-2.6-8.14-2.6h-.34c-3.58 0-6.3.87-8.14 2.6-1.85 1.73-2.77 4.28-2.77 7.64v102.72c0 3.36.92 5.91 2.77 7.64s4.56 2.6 8.14 2.6h.34c3.58 0 6.29-.87 8.14-2.6s2.77-4.28 2.77-7.64V82.22c0-3.36-.92-5.91-2.77-7.64Z"></path></g><g fill="#005eff"><path d="M243.51 239.69h-91.63c-58.02 0-105.22-47.2-105.22-105.22S93.86 29.25 151.88 29.25c48.31 0 90.4 33.46 102.03 79.44 31.42 5 55.51 32.29 55.51 65.09 0 36.34-29.57 65.91-65.91 65.91ZM151.88 56.43c-43.03 0-78.04 35.01-78.04 78.04s35.01 78.04 78.04 78.04h91.63c21.36 0 38.73-17.38 38.73-38.73s-17.37-38.73-38.73-38.73-38.73 17.38-38.73 38.73c0 7.5-6.08 13.59-13.59 13.59s-13.59-6.08-13.59-13.59c0-30.31 20.56-55.9 48.47-63.57-10.32-31.42-40.17-53.78-74.19-53.78Z"></path><path d="M104.67 148.06c-7.5 0-13.59-6.08-13.59-13.59 0-33.52 27.27-60.8 60.8-60.8 7.5 0 13.59 6.08 13.59 13.59s-6.08 13.59-13.59 13.59c-18.54 0-33.62 15.08-33.62 33.62 0 7.5-6.09 13.59-13.59 13.59Z"></path><path d="M151.88 152.02c-9.68 0-17.55-7.87-17.55-17.55s7.88-17.55 17.55-17.55 17.55 7.87 17.55 17.55-7.88 17.55-17.55 17.55Z"></path></g></svg>